<svg width="34" height="58" viewBox="0 0 34 58" fill="none" xmlns="http://www.w3.org/2000/svg">
<path d="M23.3276 57.1288C26.0279 56.8409 29.6551 56.3742 32.2367 55.6395M32.2367 55.6395C32.5342 55.555 31.268 53.6095 31.2021 53.5248C29.7572 51.6643 28.1133 50.0501 26.4025 48.4408M32.2367 55.6395C17.5772 53.9457 6.99676 43.426 6.75594 32.908C6.73207 31.8655 6.70718 30.7309 6.78338 29.5989M6.78338 29.5989C6.90472 27.7962 7.28244 26.0004 8.32892 24.5945C9.29478 23.2971 11.0995 22.0139 12.7783 22.2266C15.9145 22.6241 16.8186 26.7182 14.6891 28.8971C12.8177 30.812 8.88869 31.2063 6.78338 29.5989ZM6.78338 29.5989C6.73897 29.565 6.69537 29.5302 6.65262 29.4945C-3.66548 20.8799 2.2636 6.23036 11.944 1.00789" stroke="#A6D8D2" stroke-width="1.6749" stroke-miterlimit="1.5" stroke-linecap="round" stroke-linejoin="round"/>
</svg>
